<?xml version="1.0" encoding="utf-8"?>
<!-- Generator: Adobe Illustrator 16.0.0, SVG Export Plug-In . SVG Version: 6.00 Build 0)  -->
<!DOCTYPE svg PUBLIC "-//W3C//DTD SVG 1.1//EN" "http://www.w3.org/Graphics/SVG/1.1/DTD/svg11.dtd">
<svg version="1.1" id="Layer_1" xmlns="http://www.w3.org/2000/svg" xmlns:xlink="http://www.w3.org/1999/xlink" x="0px" y="0px"
	 width="140px" height="30px" viewBox="0 0 140 30" enable-background="new 0 0 140 30" xml:space="preserve">
<g>
	<g>
		<path fill="#8562AA" stroke="#8562AA" stroke-width="0.5" stroke-miterlimit="10" d="M6.751,7.297v15.404h15.404V7.297H6.751z
			 M21.033,21.58H7.872V8.419h13.161V21.58z"/>
	</g>
</g>
<g>
	<g>
		
			<rect x="18.792" y="1.547" fill="#8562AA" stroke="#8562AA" stroke-width="0.5" stroke-miterlimit="10" width="1.12" height="3.95"/>
	</g>
</g>
<g>
	<g>
		
			<rect x="15.524" y="1.547" fill="#8562AA" stroke="#8562AA" stroke-width="0.5" stroke-miterlimit="10" width="1.121" height="3.95"/>
	</g>
</g>
<g>
	<g>
		
			<rect x="12.261" y="1.547" fill="#8562AA" stroke="#8562AA" stroke-width="0.5" stroke-miterlimit="10" width="1.122" height="3.95"/>
	</g>
</g>
<g>
	<g>
		
			<rect x="8.994" y="1.547" fill="#8562AA" stroke="#8562AA" stroke-width="0.5" stroke-miterlimit="10" width="1.121" height="3.95"/>
	</g>
</g>
<g>
	<g>
		
			<rect x="18.792" y="24.502" fill="#8562AA" stroke="#8562AA" stroke-width="0.5" stroke-miterlimit="10" width="1.12" height="3.951"/>
	</g>
</g>
<g>
	<g>
		
			<rect x="15.524" y="24.502" fill="#8562AA" stroke="#8562AA" stroke-width="0.5" stroke-miterlimit="10" width="1.121" height="3.951"/>
	</g>
</g>
<g>
	<g>
		
			<rect x="12.261" y="24.502" fill="#8562AA" stroke="#8562AA" stroke-width="0.5" stroke-miterlimit="10" width="1.122" height="3.951"/>
	</g>
</g>
<g>
	<g>
		
			<rect x="8.994" y="24.502" fill="#8562AA" stroke="#8562AA" stroke-width="0.5" stroke-miterlimit="10" width="1.121" height="3.951"/>
	</g>
</g>
<g>
	<g>
		<rect x="1" y="9.539" fill="#8562AA" stroke="#8562AA" stroke-width="0.5" stroke-miterlimit="10" width="3.951" height="1.123"/>
	</g>
</g>
<g>
	<g>
		
			<rect x="1" y="12.808" fill="#8562AA" stroke="#8562AA" stroke-width="0.5" stroke-miterlimit="10" width="3.951" height="1.121"/>
	</g>
</g>
<g>
	<g>
		
			<rect x="1" y="16.072" fill="#8562AA" stroke="#8562AA" stroke-width="0.5" stroke-miterlimit="10" width="3.951" height="1.119"/>
	</g>
</g>
<g>
	<g>
		<rect x="1" y="19.34" fill="#8562AA" stroke="#8562AA" stroke-width="0.5" stroke-miterlimit="10" width="3.951" height="1.119"/>
	</g>
</g>
<g>
	<g>
		
			<rect x="23.956" y="9.539" fill="#8562AA" stroke="#8562AA" stroke-width="0.5" stroke-miterlimit="10" width="3.951" height="1.123"/>
	</g>
</g>
<g>
	<g>
		
			<rect x="23.956" y="12.808" fill="#8562AA" stroke="#8562AA" stroke-width="0.5" stroke-miterlimit="10" width="3.951" height="1.121"/>
	</g>
</g>
<g>
	<g>
		
			<rect x="23.956" y="16.072" fill="#8562AA" stroke="#8562AA" stroke-width="0.5" stroke-miterlimit="10" width="3.951" height="1.119"/>
	</g>
</g>
<g>
	<g>
		
			<rect x="23.956" y="19.34" fill="#8562AA" stroke="#8562AA" stroke-width="0.5" stroke-miterlimit="10" width="3.951" height="1.119"/>
	</g>
</g>
<g>
	<path fill="#8562AA" d="M47.601,9.015l-6.107,9.205l-0.578,0.116L34.721,9.16v15.833h-1.795V5.311h1.013l7.208,10.362l7.092-10.362
		h1.186v19.683h-1.824V9.015L47.601,9.015z"/>
	<path fill="#8562AA" d="M59.527,25.37c-1.313,0-2.446-0.319-3.401-0.955c-0.955-0.638-1.684-1.521-2.185-2.649
		c-0.502-1.129-0.753-2.417-0.753-3.863c0.019-1.391,0.299-2.64,0.839-3.75c0.54-1.108,1.317-1.982,2.331-2.619
		c1.013-0.638,2.195-0.956,3.545-0.956c2.064,0,3.667,0.662,4.806,1.984c1.138,1.321,1.708,3.149,1.708,5.484
		c0,1.409-0.281,2.668-0.841,3.777c-0.559,1.11-1.36,1.979-2.401,2.605C62.133,25.056,60.917,25.37,59.527,25.37z M64.593,18.075
		c0-1.796-0.405-3.242-1.215-4.343c-0.811-1.1-1.978-1.649-3.502-1.649c-1.505,0-2.688,0.541-3.547,1.621
		c-0.858,1.081-1.298,2.471-1.316,4.168c0,1.795,0.405,3.242,1.216,4.341c0.811,1.102,1.978,1.651,3.502,1.651
		c1.505,0,2.687-0.539,3.546-1.621C64.135,21.162,64.574,19.773,64.593,18.075z"/>
	<path fill="#8562AA" d="M76.084,12.111c-0.732,0-1.587,0.274-2.561,0.825c-0.975,0.55-1.781,1.229-2.417,2.04v10.017h-1.795V10.954
		h1.476l0.29,2.142c0.599-0.694,1.398-1.288,2.402-1.78c1.003-0.492,1.939-0.738,2.808-0.738c1.447,0,2.528,0.426,3.242,1.274
		s1.071,1.979,1.071,3.387v9.726h-1.795v-9.378C78.806,13.27,77.898,12.111,76.084,12.111z"/>
	<path fill="#8562AA" d="M86.767,11.244h2.547l0.607,1.359h-3.154v8.829c0,0.734,0.158,1.313,0.477,1.736
		c0.318,0.426,0.815,0.638,1.49,0.638c0.387,0,0.781-0.087,1.188-0.261l0.347,1.476c-0.058,0.02-0.251,0.083-0.579,0.188
		c-0.327,0.106-0.771,0.159-1.331,0.159c-1.042,0-1.871-0.323-2.489-0.97s-0.927-1.567-0.927-2.765v-9.031h-2.055l-0.028-1.359
		h2.083V7.597l1.825-0.638V11.244L86.767,11.244z"/>
	<path fill="#8562AA" d="M98.055,12.083c-0.908,0-1.617,0.077-2.129,0.232c-0.512,0.153-1.143,0.404-1.896,0.752l-0.549-1.273
		c0.501-0.348,1.216-0.638,2.141-0.868c0.928-0.231,1.709-0.349,2.345-0.349c1.603,0,2.876,0.416,3.821,1.246
		c0.945,0.829,1.42,1.938,1.42,3.329v9.841h-1.478l-0.23-1.505c-0.484,0.502-1.125,0.94-1.926,1.316
		c-0.801,0.377-1.588,0.565-2.359,0.565c-1.524,0-2.691-0.4-3.502-1.201s-1.216-1.838-1.216-3.112c0-1.312,0.463-2.344,1.389-3.098
		c0.926-0.752,2.134-1.119,3.619-1.1h3.908v-1.418c0-1.023-0.285-1.838-0.854-2.446C99.988,12.388,99.154,12.083,98.055,12.083z
		 M97.446,18.046c-1.004,0-1.786,0.29-2.345,0.869c-0.561,0.578-0.839,1.293-0.839,2.142c0,0.753,0.24,1.413,0.724,1.983
		c0.482,0.569,1.205,0.854,2.17,0.854c0.849,0,1.636-0.218,2.359-0.652c0.724-0.434,1.356-0.979,1.896-1.635v-3.561H97.446
		L97.446,18.046z"/>
	<path fill="#8562AA" d="M111.166,18.133v6.86h-3.734V5.311h6.166c2.315,0,4.192,0.516,5.63,1.549
		c1.438,1.032,2.157,2.619,2.157,4.76c0,1.429-0.372,2.634-1.115,3.619c-0.743,0.984-1.722,1.713-2.938,2.187
		c-1.216,0.472-2.547,0.708-3.995,0.708H111.166z M117.419,11.852c0-1.216-0.333-2.089-0.999-2.619
		c-0.665-0.531-1.645-0.797-2.938-0.797h-2.316v6.6h2.375c1.157,0,2.072-0.266,2.749-0.797
		C116.965,13.708,117.342,12.912,117.419,11.852z"/>
	<path fill="#8562AA" d="M132.615,4.904c0.694,0,1.543,0.105,2.548,0.317c1.003,0.214,1.891,0.532,2.663,0.956l-1.157,2.691
		l-0.725-0.202c-0.753-0.231-1.351-0.391-1.795-0.478c-0.443-0.087-0.994-0.131-1.649-0.131c-1.042,0-1.979,0.29-2.808,0.869
		c-0.83,0.578-1.482,1.408-1.954,2.489c-0.474,1.081-0.71,2.345-0.71,3.792c0,1.293,0.208,2.475,0.624,3.546
		c0.414,1.07,1.018,1.92,1.809,2.547c0.792,0.627,1.728,0.941,2.809,0.941c1.427,0,2.865-0.299,4.313-0.897L138,24.125
		c-0.734,0.385-1.625,0.695-2.677,0.926c-1.052,0.231-2.003,0.348-2.852,0.348c-1.988,0-3.687-0.443-5.094-1.332
		c-1.41-0.888-2.472-2.099-3.186-3.632c-0.714-1.534-1.07-3.267-1.07-5.198c0-2.006,0.391-3.79,1.173-5.354
		c0.781-1.564,1.891-2.783,3.329-3.662C129.06,5.344,130.725,4.904,132.615,4.904z"/>
</g>
</svg>
