<?xml version="1.0" encoding="iso-8859-1"?>
<!-- Generator: Adobe Illustrator 19.0.0, SVG Export Plug-In . SVG Version: 6.00 Build 0)  -->
<svg version="1.1" id="Layer_1" xmlns="http://www.w3.org/2000/svg" xmlns:xlink="http://www.w3.org/1999/xlink" x="0px" y="0px"
	 viewBox="0 0 455 455" style="enable-background:new 0 0 455 455;" xml:space="preserve">
<g>
	<rect x="183.936" y="183.935" width="87.129" height="87.13"/>
	<path d="M327.801,0h-30v92.546H242.5V0h-30v92.546h-55.301V0h-30v92.546H92.546v269.907h34.653V455h30v-92.546H212.5V455h30
		v-92.546h55.301V455h30v-92.546h34.653V92.546h-34.653V0z M153.936,301.065v-147.13h147.129v147.13H153.936z"/>
	<rect x="362.454" y="126.944" width="92.546" height="30"/>
	<rect x="362.454" y="212.246" width="92.546" height="30"/>
	<rect x="362.454" y="297.546" width="92.546" height="30"/>
	<rect y="126.944" width="92.546" height="30"/>
	<rect y="212.246" width="92.546" height="30"/>
	<rect y="297.546" width="92.546" height="30"/>
</g>
<g>
</g>
<g>
</g>
<g>
</g>
<g>
</g>
<g>
</g>
<g>
</g>
<g>
</g>
<g>
</g>
<g>
</g>
<g>
</g>
<g>
</g>
<g>
</g>
<g>
</g>
<g>
</g>
<g>
</g>
</svg>
