<?xml version="1.0" encoding="utf-8"?>
<!-- Generator: Adobe Illustrator 16.0.0, SVG Export Plug-In . SVG Version: 6.00 Build 0)  -->
<!DOCTYPE svg PUBLIC "-//W3C//DTD SVG 1.1//EN" "http://www.w3.org/Graphics/SVG/1.1/DTD/svg11.dtd">
<svg version="1.1" id="Layer_1" xmlns="http://www.w3.org/2000/svg" xmlns:xlink="http://www.w3.org/1999/xlink" x="0px" y="0px"
	 width="50px" height="50px" viewBox="0 0 50 50" enable-background="new 0 0 50 50" xml:space="preserve">
<g>
	<g>
		<path fill="#8562AA" stroke="#8562AA" stroke-width="0.5" stroke-miterlimit="10" d="M10.849,10.847v28.304h28.305V10.847H10.849z
			 M37.091,37.092H12.907V12.909h24.184V37.092z"/>
	</g>
</g>
<g>
	<g>
		
			<rect x="32.97" y="0.282" fill="#8562AA" stroke="#8562AA" stroke-width="0.5" stroke-miterlimit="10" width="2.059" height="7.258"/>
	</g>
</g>
<g>
	<g>
		
			<rect x="26.97" y="0.282" fill="#8562AA" stroke="#8562AA" stroke-width="0.5" stroke-miterlimit="10" width="2.059" height="7.258"/>
	</g>
</g>
<g>
	<g>
		
			<rect x="20.974" y="0.282" fill="#8562AA" stroke="#8562AA" stroke-width="0.5" stroke-miterlimit="10" width="2.061" height="7.258"/>
	</g>
</g>
<g>
	<g>
		
			<rect x="14.97" y="0.282" fill="#8562AA" stroke="#8562AA" stroke-width="0.5" stroke-miterlimit="10" width="2.061" height="7.258"/>
	</g>
</g>
<g>
	<g>
		
			<rect x="32.97" y="42.46" fill="#8562AA" stroke="#8562AA" stroke-width="0.5" stroke-miterlimit="10" width="2.059" height="7.259"/>
	</g>
</g>
<g>
	<g>
		
			<rect x="26.97" y="42.46" fill="#8562AA" stroke="#8562AA" stroke-width="0.5" stroke-miterlimit="10" width="2.059" height="7.259"/>
	</g>
</g>
<g>
	<g>
		
			<rect x="20.974" y="42.46" fill="#8562AA" stroke="#8562AA" stroke-width="0.5" stroke-miterlimit="10" width="2.061" height="7.259"/>
	</g>
</g>
<g>
	<g>
		
			<rect x="14.97" y="42.46" fill="#8562AA" stroke="#8562AA" stroke-width="0.5" stroke-miterlimit="10" width="2.061" height="7.259"/>
	</g>
</g>
<g>
	<g>
		
			<rect x="0.282" y="14.967" fill="#8562AA" stroke="#8562AA" stroke-width="0.5" stroke-miterlimit="10" width="7.26" height="2.063"/>
	</g>
</g>
<g>
	<g>
		
			<rect x="0.282" y="20.973" fill="#8562AA" stroke="#8562AA" stroke-width="0.5" stroke-miterlimit="10" width="7.26" height="2.06"/>
	</g>
</g>
<g>
	<g>
		
			<rect x="0.282" y="26.971" fill="#8562AA" stroke="#8562AA" stroke-width="0.5" stroke-miterlimit="10" width="7.26" height="2.058"/>
	</g>
</g>
<g>
	<g>
		
			<rect x="0.282" y="32.975" fill="#8562AA" stroke="#8562AA" stroke-width="0.5" stroke-miterlimit="10" width="7.26" height="2.056"/>
	</g>
</g>
<g>
	<g>
		
			<rect x="42.46" y="14.967" fill="#8562AA" stroke="#8562AA" stroke-width="0.5" stroke-miterlimit="10" width="7.258" height="2.063"/>
	</g>
</g>
<g>
	<g>
		
			<rect x="42.46" y="20.973" fill="#8562AA" stroke="#8562AA" stroke-width="0.5" stroke-miterlimit="10" width="7.258" height="2.06"/>
	</g>
</g>
<g>
	<g>
		
			<rect x="42.46" y="26.971" fill="#8562AA" stroke="#8562AA" stroke-width="0.5" stroke-miterlimit="10" width="7.258" height="2.058"/>
	</g>
</g>
<g>
	<g>
		
			<rect x="42.46" y="32.975" fill="#8562AA" stroke="#8562AA" stroke-width="0.5" stroke-miterlimit="10" width="7.258" height="2.056"/>
	</g>
</g>
</svg>
