<?xml version="1.0" encoding="utf-8"?>
<!-- Generator: Adobe Illustrator 16.0.0, SVG Export Plug-In . SVG Version: 6.00 Build 0)  -->
<!DOCTYPE svg PUBLIC "-//W3C//DTD SVG 1.1//EN" "http://www.w3.org/Graphics/SVG/1.1/DTD/svg11.dtd">
<svg version="1.1" id="Capa_1" xmlns="http://www.w3.org/2000/svg" xmlns:xlink="http://www.w3.org/1999/xlink" x="0px" y="0px"
	 width="612px" height="792px" viewBox="0 0 612 792" enable-background="new 0 0 612 792" xml:space="preserve">
<g>
	<g>
		<g>
			<path fill="#010002" d="M130.449,571.805h251.695c5.458,0,9.817-18.034,10.625-28.181H119.803
				C120.625,553.771,124.961,571.805,130.449,571.805z"/>
		</g>
		<g>
			<path fill="#010002" d="M431.455,571.805H546.33c5.488,0,9.877-18.034,10.646-28.181H420.778
				C421.555,553.771,425.945,571.805,431.455,571.805z"/>
		</g>
		<g>
			<path fill="#010002" d="M74.791,260.758v-30.528c0-5.563-4.493-10.034-10.034-10.034H10.034C4.493,220.195,0,224.689,0,230.229
				c0,5.563,4.493,10.034,10.034,10.034h44.689v67.382H10.034v15.656h44.689v19.538H10.034v109.447h44.689v19.507H10.034v15.657
				h44.689v74.253c0,5.541,4.493,10.034,10.033,10.034c5.541,0,10.034-4.493,10.034-10.034v-27.351H612V260.735L74.791,260.758
				L74.791,260.758z M312.864,438.626H119.481c-7.521,0-13.697-6.131-13.697-13.676c0-7.544,6.131-13.697,13.697-13.697h193.383
				c7.521,0,13.697,6.131,13.697,13.697C326.561,432.524,320.385,438.626,312.864,438.626z M312.864,383.902H119.481
				c-7.521,0-13.697-6.131-13.697-13.675c0-7.574,6.131-13.698,13.697-13.698h193.383c7.521,0,13.697,6.131,13.697,13.698
				C326.561,377.779,320.385,383.902,312.864,383.902z M468.144,504.161c-59.726,0-108.184-48.436-108.184-108.161
				s48.458-108.161,108.184-108.161c59.696,0,108.131,48.436,108.131,108.161S527.84,504.161,468.144,504.161z"/>
		</g>
		<g>
			<path fill="#010002" d="M525.701,332.686c-18.139,10.438-31.44,21.272-41.317,32.248c-4.523-2.385-9.608-3.851-15.089-4.038
				c1.713-14.341,7.335-31.119,20.846-53.011c-14.692,0-29.406,0-44.046,0c-3.051,26.064-1.047,44.181,3.342,58.357
				c-4.546,2.864-8.352,6.714-11.238,11.268c-11.529-8.404-23.148-20.203-35.186-36.846c-6.102,13.511-12.068,22.587-22.207,30.371
				c20.898,15.597,37.677,23.066,52.234,26.385c0.239,5.512,1.659,10.596,4.119,15.148c-13.323,5.697-30.774,9.152-56.354,8.404
				c12.232,15.574,23.171,26.917,29.759,38.342c18.116-10.438,31.418-21.249,41.265-32.218c4.546,2.385,9.63,3.88,15.118,4.015
				c-1.712,14.371-7.335,31.149-20.846,53.012c14.692,0,29.407,0,44.047,0c3.051-26.064,1.047-44.182-3.343-58.357
				c4.547-2.863,8.353-6.744,11.216-11.29c11.529,8.374,23.171,20.232,35.216,36.846c6.071-13.488,12.038-22.587,22.185-30.37
				c-20.868-15.598-37.646-23.037-52.204-26.387c-0.269-5.488-1.66-10.595-4.149-15.148c13.354-5.675,30.797-9.151,56.354-8.426
				C543.175,355.46,532.258,344.088,525.701,332.686z M468.092,407.021c-6.071,0-10.969-4.95-10.969-11.021
				s4.949-11.021,10.969-11.021c6.131,0,11.021,4.95,11.021,11.021S474.163,407.021,468.092,407.021z"/>
		</g>
	</g>
</g>
</svg>
